<svg width="100%" height="auto" viewBox="0 0 1400 623" fill="none" xmlns="http://www.w3.org/2000/svg">
<path d="M0.321465 192.912V183.378C0.321465 182.608 0.221963 180.056 0.0229617 175.721C-0.17604 171.386 0.918471 164.889 3.30649 156.231L7.48553 140.344C19.0177 103.172 24.7887 81.2178 24.7987 74.4803C24.7987 72.6035 24.5002 71.3086 23.9032 70.7268C23.6625 70.4628 23.3145 70.2437 22.8949 70.092C22.4753 69.9403 21.9992 69.8615 21.5151 69.8635C20.5152 69.8635 20.0226 69.5726 20.0226 69.0002C20.0226 67.8429 21.6146 64.1832 24.7987 58.0213C26.9877 53.7924 28.7787 50.0389 30.1717 46.7609C31.5647 43.4828 32.4602 41.3621 32.8582 40.3987C33.3708 38.7341 34.0691 37.0941 34.9478 35.4911C35.9083 34.2027 37.2219 33.0307 38.8283 32.0285L40.6193 30.8743L38.2313 32.6009L45.9924 27.1114C56.5394 19.4168 65.793 12.3884 73.7531 6.0263L129.872 2.56373C129.359 3.68801 129.158 4.85914 129.275 6.0263L129.872 11.2249C129.965 12.2016 130.215 13.1699 130.618 14.115C130.916 14.6968 131.066 19.8954 131.066 29.7107V50.7959L139.125 110.589V117.814L153.155 100.773L155.543 71.3086C166.488 50.1327 172.358 37.4241 173.154 33.1827C173.343 32.0254 173.741 29.6169 174.348 25.9572C174.837 22.7606 175.584 19.5816 176.587 16.4328C177.052 14.5183 178.01 12.6642 179.423 10.9433C181.612 9.02282 186.687 6.22962 194.647 2.56373H217.93C219.415 2.11464 221.062 1.91733 222.706 1.99132C223.303 1.99132 225.586 2.17899 229.571 2.56373C234.541 3.14551 237.735 3.71792 239.124 4.29971C240.512 4.88149 241.616 6.3172 242.407 8.62558C243.601 11.7097 247.88 15.2724 255.243 19.3136V24.8031L254.944 20.4678L255.243 37.5179L255.84 69.0002V88.9218L255.541 97.8832C255.138 102.115 254.944 105.587 254.944 108.28C254.944 111.94 255.243 115.984 255.84 120.413C256.437 124.842 256.884 127.539 257.183 128.502C257.558 130.224 257.708 131.963 257.631 133.701C257.631 135.627 257.481 137.551 257.183 139.472C256.884 141.405 256.735 142.84 256.735 143.807C256.642 144.709 256.952 145.609 257.631 146.406C258.228 146.979 258.526 149.972 258.526 155.358C258.526 161.326 258.228 169.03 257.631 178.47C258.323 183.365 258.622 188.279 258.526 193.193L258.228 203.6H178.826L191.662 180.779L200.617 149.296L200.915 140.917L200.617 127.629C200.617 126.091 208.776 97.3984 225.094 41.5529L228.974 20.7587L223.9 17.2961H217.333C216.139 21.9129 215.243 29.5199 214.646 40.1172C211.064 48.3936 209.174 53.1105 208.975 54.2678L205.691 61.4839C204.754 63.9508 203.507 66.3669 201.96 68.7093C201.385 69.2845 200.981 69.9203 200.766 70.586C200.632 71.594 200.582 72.6057 200.617 73.617C200.617 76.5071 196.637 90.517 188.677 115.646C180.716 140.776 176.239 154.495 175.244 156.803C174.647 158.349 169.871 160.757 160.916 164.029C154.16 160.369 147.493 158.539 140.916 158.539H130.469L99.4243 140.344L112.558 82.569V70.4453C112.558 68.5185 111.265 61.8749 108.678 50.5143C105.285 45.6974 102.3 43.2889 99.7228 43.2889H89.8722C89.0812 43.2889 89.0215 42.8103 89.723 41.8438C90.1876 41.2988 90.5387 40.7186 90.7677 40.1172L86.8872 43.2889C83.7003 45.9036 81.2287 48.8339 79.5739 51.9594C78.4636 54.0105 77.8107 56.1484 77.6336 58.3122C77.6336 58.4999 77.7381 58.406 77.9321 58.0213C78.1262 57.6366 78.2306 64.862 78.2306 79.6882C78.2306 97.5923 78.5291 113.957 79.1261 128.784C82.3102 144.379 84.1012 153.528 84.4992 156.231C84.4992 156.616 84.6037 156.803 84.7977 156.803C85.0576 156.392 85.1598 155.949 85.0962 155.508V176.734L85.9917 191.176V203.6H0.321465V192.912Z" fill="white"/>
<path d="M334.643 141.761C334.804 139.067 334.705 136.369 334.345 133.682C333.937 129.052 333.738 126.065 333.748 124.72C333.758 123.375 334.952 119.719 337.33 113.751L338.225 97.8643L338.822 85.7311C338.608 83.7128 338.608 81.6877 338.822 79.6693V77.9521C338.822 76.0284 338.524 75.0619 337.927 75.0619H337.031C336.24 75.0619 335.942 73.72 336.136 71.0175C343.101 55.6158 346.583 45.3156 346.583 40.1171C346.583 38.1934 345.986 37.2269 344.792 37.2269H331.658L325.091 37.5178L300.912 38.672L291.062 37.7993L289.868 32.3192L288.375 17.8683C288.203 16.1179 287.804 14.3793 287.181 12.6698L294.345 1.40936H423L431.358 4.87194C428.771 5.45373 423.597 11.5187 415.836 23.0669C412.851 27.3083 411.06 29.9577 410.463 31.0149C409.866 32.0721 410.214 31.7843 411.508 30.1516C412.806 28.5094 412.448 28.9505 410.463 31.4465C409.072 32.0661 407.389 32.3735 405.687 32.3192C403.63 32.2551 401.608 31.9595 399.717 31.4465H375.837L384.792 38.3811C388.772 55.7159 390.662 65.4405 390.463 67.555C390.361 68.8453 389.907 70.115 389.12 71.3084C388.418 72.2468 387.284 73.6168 385.687 75.3528L384.792 76.507C384.901 76.0579 385.101 75.6195 385.389 75.2027C385.792 74.5364 386.09 74.1986 386.284 74.1986C386.881 74.1986 387.18 74.8742 387.18 76.2161C387.034 79.0213 386.636 81.819 385.986 84.5957C384.986 90.3667 384.493 93.7448 384.493 94.702C384.483 95.049 384.584 95.3937 384.792 95.7154C385.076 96.617 385.176 97.5378 385.09 98.4554C385.09 100.776 384.991 102.991 384.792 105.099C384.792 107.032 384.687 107.914 384.493 107.698C384.299 107.483 384.195 110.016 384.195 115.205L383.896 130.219C383.772 132.159 384.386 134.089 385.687 135.849C386.594 137.091 388.043 138.146 389.866 138.89L390.463 153.04L378.523 164.019L368.076 173.262L374.643 172.099L388.374 169.499H411.06C415.045 169.499 417.97 169.987 419.866 170.944C420.743 171.354 421.475 171.875 422.015 172.473C422.555 173.07 422.89 173.732 423 174.416L431.657 180.478L435.537 191.739V203.6H276.435C277.032 198.595 277.132 195.514 276.734 194.357C276.545 193.005 276.545 190.115 276.734 185.686C286.883 175.677 294.047 169.612 298.226 167.491C299.587 166.643 301.388 166.13 303.3 166.046C303.953 166.036 304.589 166.178 305.085 166.444C305.581 166.711 305.902 167.084 305.987 167.491L328.972 163.156L337.927 150.16C335.141 145.349 334.046 142.549 334.643 141.761Z" fill="white"/>
<path d="M459.12 183.378L460.911 171.245L463.299 156.512V87.195C463.299 86.2566 463.299 84.5019 463.448 81.9964C463.598 79.491 463.448 77.3046 463.299 75.3528L458.523 50.7957C464.167 47.8512 469.409 44.615 474.194 41.1211C478.463 37.9494 480.602 35.4002 480.612 33.4734V27.984L475.239 0.546081C473.836 0.349024 473.239 0.255182 473.448 0.255182C474.058 0.316666 474.658 0.414063 475.239 0.546081C479.8 1.39789 484.514 1.88344 489.269 1.99117C490.405 1.85294 491.477 1.55457 492.403 1.11849C493.884 0.546531 495.59 0.247413 497.328 0.255182C498.343 0.235871 499.355 0.334492 500.313 0.546081C504.88 1.31554 511.945 1.70027 521.507 1.70027H538.223L543.596 5.16285C542.999 23.2608 542.601 32.7915 542.402 33.7549C542.193 34.149 543.288 37.1362 545.686 42.7163C546.074 44.0582 547.327 47.4082 549.417 52.8226C551.156 56.9943 552.403 61.241 553.148 65.5281C553.745 71.5086 557.128 81.4272 563.297 95.2837C566.471 102.603 568.063 107.417 568.073 109.725C568.073 110.876 568.869 114.533 570.461 120.695C572.053 126.857 573.148 130.998 573.745 133.119C575.735 140.826 576.73 144.773 576.73 144.961C576.924 145.543 578.073 147.607 580.163 151.173C582.413 155.088 584.258 159.091 585.685 163.156C586.842 165.551 587.544 168.023 587.775 170.522C587.969 172.934 588.267 174.135 588.67 174.135C589.073 174.135 590.655 173.271 593.446 171.536C595.365 170.264 597.463 169.106 599.715 168.073C600.94 167.575 601.921 166.873 602.55 166.046C602.966 164.522 603.116 162.974 602.998 161.429V95.5746L595.237 73.9077L601.207 79.1063L592.849 70.7266L576.431 53.6859L568.073 17.0051C568.073 14.1149 568.471 8.91632 569.267 1.40938L601.207 1.99117C601.595 1.99117 601.804 2.085 601.804 2.27268C601.28 3.0125 600.575 3.69635 599.715 4.29955C598.556 5.10239 597.825 6.11291 597.625 7.18972C597.625 8.34391 599.416 8.91632 602.998 8.91632C610.55 8.91632 622.888 6.51097 640.012 1.70027L645.087 51.3775V62.9382C638.52 77.1889 635.236 87.0104 635.236 92.4029V168.035L627.475 197.782L616.132 203.562H585.685L561.208 200.672C560.213 198.17 559.367 196.196 558.671 194.751C557.969 193.306 557.417 192.105 557.029 191.138C556.82 190.753 557.417 191.335 558.82 192.874C560.223 194.413 561.103 195.379 561.506 195.755L556.73 189.402C553.337 184.598 550.153 177.328 547.178 167.594C544.203 157.86 541.716 147.607 539.716 136.835C523.985 118.349 516.124 108.624 516.134 107.661C516.144 106.697 509.179 97.6484 495.239 80.5138L494.642 77.3327L501.507 112.859C502.502 114.592 502.751 114.642 502.254 113.01C501.756 111.377 503.796 114.986 508.373 123.838L519.119 146.078C523.298 171.313 525.985 185.179 527.179 187.675C527.978 189.687 529.181 191.626 530.761 193.446C532.751 196.537 533.746 198.464 533.746 199.227V203.562H453.448V197.782C457.229 188.949 459.12 184.147 459.12 183.378Z" fill="white"/>
<path d="M740.308 1.40936V14.6967C739.114 24.3243 737.821 32.6039 736.428 39.5353C736.161 41.6717 735.662 43.7943 734.935 45.888L730.756 59.4662L728.07 68.7091V67.1233C728.07 66.2506 727.771 65.819 727.174 65.819C726.577 65.819 725.771 66.5884 724.786 68.1274C723.721 69.5404 722.775 70.9874 721.95 72.4626C721.484 73.2986 721.232 74.1761 721.204 75.0619C721.051 77.6939 720.451 80.308 719.413 82.8597L716.428 92.1027C715.622 95.1868 714.13 99.4219 711.951 104.808L709.861 110.016L711.354 106.544L708.966 112.897C706.18 120.404 704.289 125.606 703.294 128.502C702.299 132.349 701.652 135.333 701.354 137.454C701.055 139.575 700.906 142.271 700.906 145.543C700.906 147.082 700.906 148.142 700.757 148.714C700.607 149.287 700.399 150.929 700.01 153.631C699.612 157.666 699.463 160.266 699.563 161.429C699.652 162.584 699.712 163.55 699.712 164.31C699.712 166.049 700.11 170.094 700.906 176.443H708.07C709.793 176.321 711.437 175.924 712.846 175.289C713.841 174.52 717.423 171.679 723.592 166.769C727.958 163.132 732.748 159.704 737.92 156.512C746.477 149.775 751.651 145.443 753.442 143.516C754.382 142.616 755.134 141.645 755.681 140.626C756.174 139.687 757.517 137.642 759.711 134.564C762.487 130.717 763.781 128.599 763.592 128.211C763.415 127.531 763.517 126.833 763.89 126.184C765.851 122.889 767.446 119.512 768.666 116.078C774.427 96.8227 777.412 85.7499 777.621 82.8597C778.311 78.8722 779.408 74.9167 780.905 71.0175L788.964 52.2502C790.347 44.3616 791.143 38.9722 791.352 36.0821C791.83 33.131 792.832 30.2228 794.337 27.4116L803.292 1.41875H839.113V11.5156C838.226 15.6326 837.827 19.7854 837.919 23.9396V27.4022L837.62 36.6451C837.62 37.7962 836.625 42.513 834.635 50.7957L831.352 72.7535L827.77 87.7674V97.883L823.889 119.24L823.292 128.493L822.994 152.749V157.713L825.68 162.912L831.352 166.384L840.008 183.425C842.396 191.126 843.59 196.709 843.59 200.175C843.59 202.108 843.187 203.065 842.396 203.065C839.745 203.45 836.988 203.45 834.337 203.065H793.143L796.427 184.297L797.024 162.921L798.218 155.123C799.8 142.23 799.8 137.226 798.218 140.11C796.758 143.287 795.612 146.518 794.785 149.784C793.492 154.307 792.646 157.629 792.248 159.75C791.442 162.44 790.347 166.675 788.964 172.455C787.581 178.236 786.885 181.607 786.875 182.571C786.875 183.34 786.367 183.725 785.382 183.725L782.696 183.434C781.662 183.504 780.705 183.811 780.009 184.297C778.606 185.455 770.746 188.345 756.428 192.968C742.109 197.591 733.851 199.899 731.652 199.893C731.055 199.893 727.965 200.287 722.398 201.057C713.045 202.783 705.782 203.65 700.607 203.656H695.234L688.966 201.338C687.175 200.578 683.891 199.321 679.115 197.585C674.339 195.849 671.548 194.601 670.757 193.831C669.713 193.209 668.985 192.405 668.668 191.523C667.765 189.745 666.668 188.008 665.384 186.324C664.355 185.035 663.554 183.679 662.996 182.28C663.228 181.247 663.628 180.231 664.19 179.249C664.976 177.61 665.374 173.516 665.384 166.966V148.198C665.384 145.496 665.384 142.897 665.235 140.4C665.086 137.904 665.235 135.709 665.384 133.757C665.64 131.835 665.739 129.905 665.683 127.977L665.384 107.473C665.384 100.154 665.484 95.0992 665.683 92.3091C665.877 89.494 666.474 85.9094 667.474 81.471C668.071 78.2054 668.369 75.9815 668.369 74.8273C668.369 72.9037 668.071 71.9371 667.474 71.9371L676.727 32.657C677.513 30.1547 679.603 25.5348 682.996 18.7973L689.563 1.46566L740.308 1.40936Z" fill="white"/>
<path d="M919.709 141.761C919.861 139.067 919.762 136.369 919.41 133.682C919.012 129.052 918.813 126.065 918.813 124.72C918.813 123.375 920.007 119.719 922.395 113.751L923.291 97.8643L923.888 85.7311C923.657 83.7131 923.657 81.6873 923.888 79.6693V77.9521C923.888 76.0284 923.589 75.0619 922.992 75.0619H922.097C921.291 75.0619 920.992 73.72 921.201 71.0175C928.166 55.6158 931.649 45.3156 931.649 40.1171C931.649 38.1934 931.052 37.2269 929.858 37.2269H916.724L910.157 37.5178L885.978 38.672L876.127 37.7993L874.933 32.3192L873.441 17.8683C873.268 16.1179 872.869 14.3793 872.247 12.6698L879.411 1.40936H1008.07L1016.42 4.87194C1013.83 5.45373 1008.65 11.5187 1000.9 23.0669C997.916 27.3083 996.125 29.9577 995.528 31.0149C994.931 32.0721 995.28 31.7843 996.573 30.1516C997.857 28.5094 997.513 28.9505 995.528 31.4465C994.137 32.0661 992.455 32.3735 990.752 32.3192C988.695 32.2551 986.673 31.9595 984.782 31.4465H960.902L969.857 38.3811C973.837 55.7159 975.728 65.4405 975.529 67.555C975.412 68.844 974.958 70.1121 974.185 71.3084C973.484 72.2468 972.335 73.6168 970.753 75.3528L969.857 76.507C969.966 76.0579 970.167 75.6195 970.454 75.2027C970.842 74.5364 971.141 74.1986 971.35 74.1986C971.947 74.1986 972.245 74.8742 972.245 76.2161C972.1 79.0213 971.701 81.819 971.051 84.5957C970.051 90.3667 969.559 93.7448 969.559 94.702C969.541 95.0493 969.643 95.395 969.857 95.7154C970.141 96.617 970.242 97.5378 970.156 98.4554C970.156 100.776 970.056 102.991 969.857 105.099C969.857 107.032 969.753 107.914 969.559 107.698C969.365 107.483 969.26 110.016 969.26 115.205L968.962 130.219C968.838 132.159 969.452 134.089 970.753 135.849C971.659 137.091 973.108 138.146 974.932 138.89L975.529 153.04L963.589 164.019L953.141 173.262L959.708 172.099L973.439 169.499H996.125C1000.1 169.499 1003.04 169.987 1004.93 170.944C1005.8 171.357 1006.53 171.878 1007.07 172.476C1007.61 173.073 1007.95 173.733 1008.07 174.416L1016.72 180.478L1020.6 191.739V203.6H861.501C862.098 198.589 862.187 195.511 861.799 194.357C861.59 193.005 861.59 190.115 861.799 185.686C871.948 175.677 879.112 169.612 883.291 167.491C884.653 166.643 886.454 166.13 888.366 166.046C889.019 166.036 889.654 166.178 890.15 166.444C890.646 166.711 890.968 167.084 891.052 167.491L914.037 163.156L922.992 150.16C920.206 145.349 919.112 142.549 919.709 141.761Z" fill="white"/>
<path d="M1073.36 197.528L1062.08 187.741L1042.98 166.074C1042.19 163.954 1041.79 159.237 1041.78 151.924C1041.78 143.835 1042.18 134.304 1042.98 123.332L1062.68 96.7194V84.8866C1062.08 86.6132 1061.74 86.8102 1061.63 85.459C1061.53 84.1077 1061.89 80.8422 1062.68 75.6437L1066.26 52.2408C1065.26 47.4363 1062.48 45.031 1057.9 45.0247C1053.33 45.0247 1047.95 47.1454 1041.78 51.3775L1038.5 30.2923V11.2247L1048.35 1.40936H1121.48L1117 10.0705L1114.62 19.8952C1113.03 22.2036 1112.04 26.4388 1111.63 32.6007C1111.41 35.9367 1110.91 39.263 1110.14 42.5662C1109.54 44.7807 1109.04 46.8514 1108.65 48.7782L1107.45 55.9942H1144.47L1166.26 51.9593V64.6648C1166.66 67.9397 1167.05 69.8164 1167.45 70.295C1167.75 70.6047 1167.96 70.9492 1168.05 71.3084L1167.45 75.0619L1165.66 85.1681C1164.86 90.1727 1164.47 92.9659 1164.47 93.5477C1164.54 94.2756 1164.44 95.006 1164.17 95.7154C1163.97 96.0063 1163.38 96.1939 1162.38 96.2878C1161.55 96.3555 1160.74 96.5044 1159.99 96.7288C1157.36 97.1614 1154.65 97.3542 1151.93 97.3012C1147.36 97.3012 1141.97 97.1135 1135.81 96.7288H1127.75L1119.69 94.411L1114.62 89.7943L1108.05 82.8597L1097.6 79.1062L1105.06 99.3281L1100.59 105.39L1099.99 144.67L1117.6 154.204C1121.77 153.996 1125.97 153.996 1130.14 154.204C1131.74 154.592 1134.63 154.592 1138.8 154.204L1146.85 142.943L1148.65 123.303L1168.88 113.188C1176.65 110.492 1181.32 109.143 1182.91 109.143C1184.51 109.143 1190.18 108.277 1199.93 106.544L1210.38 129.065C1210.38 136.384 1207.99 149.768 1203.21 169.218L1184.7 188.276C1192.47 187.894 1196.35 188.185 1196.35 189.149C1196.35 190.875 1184.71 194.05 1161.42 198.673C1143.11 202.333 1128.69 204.163 1118.14 204.163C1115.62 204.214 1113.1 204.021 1110.68 203.59L1073.36 197.528Z" fill="white"/>
<path d="M499.418 383.541L502.403 376.034L503.896 363.901L490.463 383.832C487.102 385.888 484.008 388.11 481.209 390.476L458.523 408.098L447.18 408.38C437.956 408.402 428.752 407.823 419.718 406.653C418.051 406.428 416.347 406.33 414.643 406.362C412.931 406.323 411.224 406.508 409.631 406.906C408.038 407.303 406.594 407.904 405.39 408.671C403.002 410.219 401.405 410.979 400.614 410.979C399.823 410.979 398.375 410.36 396.882 409.102C394.507 406.933 392.363 404.666 390.465 402.318C390.067 401.93 387.48 399.04 382.703 393.647C380.333 391.029 378.19 388.332 376.286 385.568C375.098 383.57 374.345 381.481 374.047 379.356C373.649 376.954 373.45 372.956 373.45 367.364L373.151 324.621C373.151 316.92 373.251 312.106 373.45 310.18C376.027 290.543 381.102 278.506 388.674 274.071C392.892 271.533 397.729 269.436 403.002 267.859C407.977 266.427 411.658 265.707 414.046 265.701C414.643 265.701 415.434 265.072 416.434 263.824C417.434 262.576 418.524 261.947 419.718 261.947C423.101 261.947 428.374 265.895 435.538 273.79L447.479 286.795C449.148 288.414 450.643 290.1 451.956 291.844C453.339 293.677 455.528 296.614 458.523 300.655L469.568 316.542L485.09 339.363L498.224 333.292C506.582 323.476 511.657 317.796 513.448 316.251C516.025 313.942 518.91 308.359 522.104 299.501C522.701 297.962 523.194 297.193 523.597 297.193V288.804C523.597 283.799 524.194 280.092 525.388 277.684C526.162 276.321 526.761 274.922 527.179 273.499C527.179 272.348 525.686 270.903 522.701 269.163C521.388 268.53 520.529 267.595 520.313 266.564C520.313 265.795 521.104 265.316 522.701 265.119C524.298 264.922 525.194 264.734 525.388 264.547C525.582 264.359 521.209 263.777 512.851 262.811C495.736 261.072 484.791 260.108 480.015 259.921C477.224 260.305 474.15 262.041 470.762 265.119C468.971 266.667 467.627 267.427 466.732 267.427C465.836 267.427 465.344 267.484 465.239 267.578C465.072 268.295 465.022 269.021 465.09 269.745C465.09 271.084 463.1 271.756 459.12 271.763C453.325 271.601 447.596 270.921 442.105 269.745C430.165 259.924 423.3 254.919 421.509 254.731C419.519 254.544 426.384 250.018 442.105 241.153L470.762 223.249C473.946 219.764 477.538 216.433 481.508 213.284C485.09 210.5 488.075 209.105 490.463 209.099C495.647 209.099 512.861 209.965 542.104 211.698L575.536 235.664L580.312 252.704L560.909 288.231C563.108 287.274 564.203 287.565 564.193 289.104C564.193 291.606 560.113 298.056 551.954 308.453C548.036 313.502 543.702 318.42 538.97 323.185L534.044 327.802C533.048 328.538 532.242 329.367 531.656 330.261C531.386 331.457 531.286 332.666 531.358 333.873V341.38C532.96 372.584 533.855 388.471 534.044 389.04C534.044 389.24 536.432 388.18 541.208 385.859C545.984 383.538 550.163 382.384 553.745 382.396C558.919 382.396 561.506 385.283 561.506 391.057C561.696 397.42 561.895 401.899 562.104 404.495C562.298 407.094 562.402 408.586 562.402 408.971C562.359 409.473 562.156 409.964 561.805 410.416C561.611 410.801 559.715 410.988 556.133 410.988L544.492 410.707C538.93 410.319 535.646 410.222 534.641 410.416L509.567 411.279H501.209L499.418 383.541ZM416.136 381.664C417.738 381.571 419.23 381.524 420.613 381.524H432.553C437.926 381.524 442.105 380.56 445.09 378.633C448.415 376.417 451.274 373.941 453.598 371.267C456.284 368.283 458.125 366.31 459.12 365.346L474.045 348.596L472.553 335.591L454.643 325.484L428.076 315.669C426.285 315.284 424.986 315.284 424.195 315.669C422.205 317.396 418.972 320.62 414.494 325.344C411.219 328.639 408.278 332.062 405.688 335.591C404.086 337.524 403.091 340.702 402.703 345.124C402.315 349.547 402.116 354.94 402.106 361.302C402.106 363.61 402.002 365.449 401.808 366.791C401.614 368.133 401.509 369.1 401.509 369.681L402.106 373.144L403.002 378.052C403.836 378.94 404.958 379.708 406.295 380.307C407.632 380.905 409.154 381.319 410.763 381.524C412.537 381.711 414.342 381.758 416.136 381.664Z" fill="white"/>
<path d="M663.594 209.952L662.997 225.257L661.206 238.254L656.131 255.304L655.236 273.217C657.624 289.201 658.818 299.019 658.818 302.673C658.742 305.28 658.941 307.889 659.415 310.48L666.28 328.675L665.385 361.02C665.385 373.15 666.081 379.215 667.474 379.215C668.469 379.215 672.25 372.093 678.817 357.849L691.355 333.582L703.295 317.123L712.548 289.395L702.399 275.816L695.832 250.396L698.22 222.095L710.757 210.534L713.444 209.962C714.041 209.774 717.817 209.671 724.787 209.671L752.846 209.962H775.532V234.228L752.846 269.173L746.876 294.302L723.593 330.12C719.414 336.67 716.23 341.53 714.041 344.702C711.847 347.883 710.563 349.854 710.16 350.623C710.354 350.623 710.608 350.482 710.907 350.192C711.005 350.068 711.154 349.964 711.337 349.888C711.521 349.812 711.732 349.768 711.951 349.76C712.354 349.76 712.548 350.051 712.548 350.623C712.367 351.695 712.068 352.758 711.653 353.804C710.701 357.209 708.992 360.513 706.578 363.62C704.593 365.928 702.593 367.279 700.608 367.664L686.578 395.393L675.534 411.279H647.773C643.713 408.488 640.02 405.494 636.729 402.327C633.55 399.249 631.848 396.65 631.654 394.529C631.097 391.459 629.893 388.448 628.072 385.577C624.898 379.797 623.306 374.886 623.296 370.845C623.296 367.569 622.542 364.311 621.057 361.171C619.565 357.993 618.719 356.116 618.52 355.54C618.326 354.968 617.669 353.617 616.58 351.496C615.558 349.638 615.004 347.691 614.938 345.725V333.573C614.938 326.448 614.241 318.168 612.848 308.734L611.654 296.029C611.256 291.981 608.868 283.796 604.49 271.472C600.311 259.736 598.222 252.42 598.222 249.523V209.952H663.594Z" fill="white"/>
<path d="M919.71 383.541L922.695 376.034L924.187 363.901L910.754 383.832C907.394 385.888 904.3 388.11 901.501 390.476L878.815 408.098L867.472 408.38C858.247 408.402 849.044 407.823 840.009 406.653C838.343 406.428 836.639 406.33 834.935 406.362C833.222 406.323 831.515 406.508 829.922 406.906C828.33 407.303 826.885 407.904 825.681 408.671C823.293 410.219 821.696 410.979 820.905 410.979C820.114 410.979 818.666 410.36 817.174 409.102C814.798 406.933 812.654 404.666 810.756 402.318C810.358 401.93 807.771 399.04 802.995 393.647C800.624 391.029 798.482 388.332 796.577 385.568C795.39 383.57 794.637 381.481 794.338 379.356C793.94 376.954 793.742 372.956 793.742 367.364L793.443 324.621C793.443 316.92 793.543 312.106 793.742 310.18C796.329 290.543 801.403 278.506 808.965 274.071C813.184 271.533 818.021 269.436 823.293 267.859C828.268 266.427 831.95 265.707 834.338 265.701C834.935 265.701 835.726 265.072 836.726 263.824C837.726 262.576 838.815 261.947 840.009 261.947C843.392 261.947 848.666 265.895 855.83 273.79L867.77 286.795C869.439 288.414 870.935 290.1 872.248 291.844C873.631 293.677 875.82 296.614 878.815 300.655L889.859 316.542L905.381 339.363L918.516 333.292C926.874 323.476 931.948 317.796 933.739 316.251C936.316 313.942 939.202 308.359 942.396 299.501C942.993 297.962 943.485 297.193 943.888 297.193V288.804C943.888 283.799 944.485 280.092 945.679 277.684C946.454 276.321 947.053 274.922 947.47 273.499C947.47 272.348 945.978 270.903 942.993 269.163C941.68 268.53 940.821 267.595 940.605 266.564C940.605 265.795 941.396 265.316 942.993 265.119C944.59 264.922 945.485 264.734 945.679 264.547C945.873 264.359 941.5 263.777 933.142 262.811C916.028 261.072 905.083 260.108 900.307 259.921C897.516 260.305 894.441 262.041 891.053 265.119C889.262 266.667 887.919 267.427 887.024 267.427C886.128 267.427 885.636 267.484 885.531 267.578C885.364 268.295 885.314 269.021 885.382 269.745C885.382 271.084 883.392 271.756 879.412 271.763C873.617 271.601 867.888 270.921 862.397 269.745C850.457 259.924 843.591 254.919 841.8 254.731C839.81 254.544 846.676 250.018 862.397 241.153L891.053 223.249C894.238 219.764 897.829 216.433 901.799 213.284C905.381 210.5 908.366 209.105 910.754 209.099C915.938 209.099 933.152 209.965 962.395 211.698L995.828 235.664L1000.6 252.704L981.201 288.231C983.4 287.274 984.495 287.565 984.485 289.104C984.485 291.606 980.405 298.056 972.246 308.453C968.328 313.502 963.994 318.42 959.261 323.185C956.381 325.888 954.784 327.427 954.336 327.802C953.339 328.538 952.533 329.367 951.948 330.261C951.67 331.456 951.57 332.666 951.649 333.873V341.38C953.231 372.584 954.127 388.471 954.336 389.04C954.336 389.24 956.724 388.18 961.5 385.859C966.276 383.538 970.455 382.384 974.037 382.396C979.211 382.396 981.798 385.283 981.798 391.057C981.997 397.42 982.196 401.899 982.395 404.495C982.589 407.094 982.694 408.586 982.694 408.971C982.651 409.473 982.447 409.964 982.097 410.416C981.903 410.801 980.007 410.988 976.425 410.988L964.783 410.707C959.201 410.322 955.933 410.228 954.933 410.416L929.859 411.279H921.501L919.71 383.541ZM836.427 381.664C838.029 381.571 839.522 381.524 840.905 381.524H852.845C858.218 381.524 862.397 380.56 865.382 378.633C868.707 376.417 871.566 373.941 873.889 371.267C876.576 368.283 878.417 366.31 879.412 365.346L894.337 348.596L892.844 335.591L874.934 325.484L848.367 315.669C846.576 315.284 845.278 315.284 844.487 315.669C842.497 317.396 839.263 320.62 834.786 325.344C831.51 328.639 828.569 332.062 825.98 335.591C824.378 337.524 823.383 340.702 822.995 345.124C822.607 349.547 822.408 354.94 822.398 361.302C822.398 363.61 822.293 365.449 822.099 366.791C821.905 368.133 821.801 369.1 821.801 369.681L822.398 373.144L823.293 378.052C824.127 378.94 825.249 379.708 826.586 380.307C827.924 380.905 829.446 381.319 831.054 381.524C832.829 381.711 834.634 381.758 836.427 381.664Z" fill="white"/>
<path d="M1024.18 391.048L1025.98 378.924L1028.36 364.192V294.875C1028.36 293.936 1028.36 292.172 1028.51 289.667C1028.66 287.161 1028.51 284.975 1028.36 283.023L1023.59 258.475C1029.23 255.528 1034.47 252.292 1039.26 248.801C1043.53 245.62 1045.68 243.077 1045.68 241.144V235.654L1040.3 208.216C1038.92 208.029 1038.3 207.926 1038.51 207.926C1039.12 207.992 1039.72 208.089 1040.3 208.216C1044.86 209.073 1049.58 209.558 1054.33 209.662C1055.47 209.524 1056.54 209.229 1057.47 208.798C1058.94 208.219 1060.65 207.917 1062.39 207.926C1063.41 207.911 1064.42 208.009 1065.38 208.216C1069.95 208.986 1077.01 209.371 1086.57 209.371H1103.29L1108.66 212.843C1108.06 230.947 1107.67 240.478 1107.47 241.435C1107.26 241.816 1108.35 244.8 1110.75 250.387C1111.14 251.738 1112.38 255.107 1114.48 260.493C1116.22 264.668 1117.47 268.918 1118.21 273.208C1118.81 279.176 1122.19 289.091 1128.36 302.954C1131.55 310.273 1133.14 315.087 1133.14 317.396C1133.14 318.547 1133.93 322.206 1135.53 328.374C1137.12 334.543 1138.21 338.684 1138.81 340.798C1140.8 348.499 1141.79 352.447 1141.79 352.641C1141.99 353.213 1143.14 355.287 1145.23 358.843C1147.48 362.762 1149.32 366.767 1150.75 370.836C1151.91 373.23 1152.61 375.703 1152.84 378.202C1153.03 380.613 1153.33 381.805 1153.74 381.805C1154.14 381.805 1155.72 380.942 1158.51 379.206C1160.44 377.943 1162.54 376.784 1164.78 375.743C1166 375.246 1166.98 374.548 1167.62 373.726C1168.03 372.199 1168.18 370.647 1168.06 369.1V303.245L1160.3 281.578L1166.27 286.777L1157.91 278.397L1141.5 261.356L1133.14 224.675C1133.14 221.785 1133.54 216.587 1134.33 209.08L1166.27 209.652C1166.66 209.652 1166.87 209.755 1166.87 209.943C1166.34 210.679 1165.64 211.36 1164.78 211.961C1163.62 212.763 1162.89 213.774 1162.69 214.851C1162.69 216.005 1164.48 216.587 1168.06 216.587C1175.62 216.587 1187.95 214.178 1205.08 209.361L1210.15 259.048V270.599C1203.59 284.856 1200.3 294.678 1200.3 300.064V375.734L1192.54 405.49L1181.2 411.261H1150.75L1126.27 408.37C1125.27 405.874 1124.42 403.894 1123.74 402.449C1123.05 401.004 1122.5 399.803 1122.09 398.846C1121.88 398.461 1122.5 399.034 1123.88 400.573C1125.27 402.111 1126.17 403.078 1126.57 403.463L1121.8 397.11C1118.4 392.299 1115.22 385.03 1112.24 375.302C1109.27 365.575 1106.78 355.321 1104.78 344.543C1089.05 326.057 1081.19 316.332 1081.2 315.369C1081.21 314.405 1074.24 305.353 1060.3 288.212L1059.71 285.041L1066.57 320.567C1067.57 322.306 1067.82 322.353 1067.32 320.708C1066.82 319.063 1068.86 322.675 1073.44 331.546L1084.18 353.786C1088.36 379.009 1091.05 392.872 1092.24 395.374C1093.04 397.389 1094.25 399.331 1095.83 401.154C1097.81 404.232 1098.81 406.165 1098.81 406.925V411.261H1018.51V405.49C1022.24 396.638 1024.14 391.824 1024.18 391.048Z" fill="white"/>
<path d="M1262.99 405.208L1251.64 395.383L1232.54 373.726C1231.73 371.605 1231.34 366.885 1231.35 359.566C1231.35 351.477 1231.74 341.946 1232.54 330.974L1252.24 304.399V292.557C1251.64 294.293 1251.29 294.49 1251.2 293.139C1251.27 289.855 1251.62 286.575 1252.24 283.314L1255.82 259.921C1254.83 255.11 1252.04 252.701 1247.47 252.695C1242.88 252.695 1237.51 254.825 1231.35 259.057L1228.06 237.972V218.904L1237.91 209.089H1311.05L1306.57 217.75L1304.18 227.566C1302.59 229.886 1301.59 234.125 1301.2 240.28C1300.97 243.616 1300.47 246.942 1299.7 250.246C1299.11 252.46 1298.6 254.534 1298.21 256.458L1297.02 263.674H1334.03L1355.82 259.63V272.345C1356.21 275.616 1356.61 277.493 1357.02 277.975C1357.32 278.285 1357.52 278.629 1357.61 278.988L1357.02 282.742L1355.22 292.838C1354.42 297.849 1354.03 300.636 1354.03 301.218C1354.1 301.943 1354 302.67 1353.73 303.376C1353.52 303.667 1352.93 303.864 1351.94 303.958C1351.12 304.028 1350.31 304.173 1349.55 304.39C1346.93 304.83 1344.21 305.026 1341.49 304.972C1336.91 304.972 1331.54 304.784 1325.37 304.39H1317.31L1309.26 302.081L1304.18 297.465L1297.61 290.53L1287.17 286.777L1294.63 306.989L1290.15 313.06L1289.55 352.34L1307.17 361.874C1311.34 361.656 1315.53 361.656 1319.7 361.874C1321.28 362.259 1324.18 362.259 1328.36 361.874L1336.42 350.614L1338.21 330.974L1358.51 320.868C1366.27 318.171 1370.95 316.823 1372.54 316.823C1374.13 316.823 1379.8 315.957 1389.55 314.224L1400 336.745C1400 344.064 1397.61 357.445 1392.84 376.888L1374.33 395.956C1382.09 395.574 1385.97 395.862 1385.97 396.819C1385.97 398.558 1374.33 401.736 1351.05 406.353C1332.74 410.013 1318.31 411.842 1307.76 411.842C1305.24 411.897 1302.72 411.701 1300.3 411.261L1262.99 405.208Z" fill="white"/>
<path d="M61.2152 617.514L48.3796 602.5L37.0365 591.521C35.173 589.857 33.4781 588.121 31.9619 586.323C31.9619 586.135 32.1112 586.088 32.4097 586.182C32.6359 586.267 32.8924 586.315 33.1559 586.323C34.1559 586.323 34.6484 585.75 34.6484 584.596C34.5378 583.626 34.3385 582.661 34.0514 581.706C33.1428 579.243 32.6426 576.727 32.5589 574.199C32.5589 572.078 33.0664 570.633 34.0514 569.864V546.451C34.0514 541.253 34.1509 538.653 34.3499 538.653C34.6065 537.601 34.7064 536.536 34.6484 535.472C34.8984 532.922 34.8984 530.365 34.6484 527.815C34.4536 527.392 34.4536 526.943 34.6484 526.52C34.9812 523.732 35.0808 520.935 34.9469 518.141L34.6484 496.765V490.412C34.6484 486.565 35.8424 478.67 38.2305 466.728V451.132L46.29 420.222L117.334 422.249C111.624 427.565 106.344 433.058 101.513 438.708C96.9459 444.107 94.1599 448.442 93.1549 451.714C91.1649 457.882 90.6674 460.578 91.6624 459.802C89.6724 472.508 88.6774 483.193 88.6774 491.857C87.4834 499.758 86.4884 505.341 85.6924 508.607C84.2994 513.23 83.3044 517.13 82.7074 520.308C82.0168 524.771 81.7179 529.253 81.8118 533.736C81.8118 538.178 81.6128 539.72 81.2148 538.363C80.8268 537.021 80.2298 537.302 79.4238 539.226C78.4451 542.168 78.0441 545.174 78.2298 548.178C78.2298 551.847 78.4388 555.45 78.8268 559.016C79.2149 562.582 79.4238 564.552 79.4238 564.937C79.4238 565.9 80.4188 570.039 82.4089 577.352H85.6924C87.4834 577.352 95.344 575.716 109.274 572.444L124.199 565.51L133.154 561.465L131.065 562.619L150.766 550.205C159.333 546.545 166.199 543.561 171.363 541.253C176.527 538.944 179.014 537.402 178.825 536.627H192.556V583.995L188.676 589.485C181.711 593.144 170.169 596.804 154.049 600.464C144.099 602.772 139.124 604.602 139.124 605.953C139.209 606.267 139.414 606.563 139.721 606.816C139.901 606.958 140.033 607.12 140.11 607.294C140.187 607.469 140.207 607.651 140.169 607.83C140.08 608.111 139.527 608.355 138.527 608.553C134.547 609.51 128.478 614.13 120.319 622.412H70.1702L61.2152 617.514Z" fill="white"/>
<path d="M336.734 594.683L339.719 587.176L341.211 575.043L327.779 594.974C324.415 597.029 321.32 599.25 318.525 601.618L295.839 619.231L284.496 619.522C275.271 619.544 266.068 618.966 257.034 617.795C255.367 617.57 253.663 617.472 251.959 617.505C250.246 617.465 248.54 617.65 246.947 618.048C245.354 618.445 243.909 619.046 242.705 619.813C240.317 621.361 238.72 622.121 237.929 622.121C237.138 622.121 235.691 621.502 234.198 620.245C231.823 618.075 229.679 615.808 227.78 613.46C227.382 613.079 224.795 610.188 220.019 604.79C217.648 602.172 215.506 599.475 213.601 596.71C212.414 594.712 211.661 592.623 211.363 590.498C210.96 588.087 210.766 584.099 210.766 578.506L210.467 535.763C210.467 528.056 210.567 523.242 210.766 521.322C213.343 501.679 218.417 489.642 225.989 485.213C230.208 482.675 235.045 480.578 240.317 479.001C245.292 477.569 248.974 476.849 251.362 476.843C251.959 476.843 252.75 476.214 253.75 474.966C254.75 473.718 255.84 473.09 257.034 473.09C260.417 473.09 265.69 477.037 272.854 484.932L284.794 497.938C286.463 499.556 287.959 501.243 289.272 502.986C290.665 504.813 292.854 507.75 295.839 511.797L306.883 527.684L322.406 550.505L335.54 544.434C343.898 534.618 348.972 528.938 350.763 527.393C353.34 525.085 356.226 519.501 359.42 510.643C360.017 509.104 360.509 508.335 360.912 508.335V499.955C360.912 494.95 361.509 491.244 362.703 488.835C363.478 487.473 364.077 486.073 364.494 484.65C364.494 483.487 363.002 482.051 360.017 480.315C358.707 479.681 357.848 478.746 357.629 477.716C357.629 476.946 358.42 476.468 360.017 476.271C361.614 476.074 362.509 475.886 362.703 475.689C362.897 475.492 358.524 474.929 350.166 473.962C333.052 472.223 322.107 471.26 317.331 471.072C314.54 471.457 311.465 473.193 308.077 476.271C306.286 477.819 304.943 478.579 304.048 478.579C303.152 478.579 302.66 478.635 302.555 478.729C302.389 479.443 302.339 480.167 302.406 480.887C302.406 482.239 300.416 482.914 296.436 482.914C290.639 482.753 284.91 482.071 279.421 480.887C267.481 471.072 260.616 466.067 258.825 465.874C256.835 465.686 263.7 461.16 279.421 452.295L308.077 434.391C311.262 430.907 314.854 427.576 318.824 424.426C322.406 421.611 325.391 420.231 327.779 420.231C332.963 420.231 350.176 421.098 379.42 422.831L412.852 446.806L417.628 463.847L398.225 499.373C400.424 498.416 401.519 498.707 401.509 500.246C401.509 502.748 397.429 509.198 389.27 519.595C385.352 524.644 381.018 529.562 376.285 534.327L371.36 538.944C370.363 539.68 369.557 540.509 368.972 541.403C368.702 542.599 368.602 543.808 368.673 545.016V552.522C370.275 583.714 371.171 599.6 371.36 600.182C371.36 600.382 373.748 599.322 378.524 597.001C383.3 594.68 387.479 593.526 391.061 593.539C396.235 593.539 398.822 596.426 398.822 602.2C399.011 608.562 399.21 613.041 399.419 615.637C399.613 618.236 399.718 619.728 399.718 620.113C399.675 620.615 399.472 621.107 399.121 621.558C398.927 621.943 397.031 622.131 393.449 622.131L381.808 621.84C376.245 621.464 372.962 621.371 371.957 621.558L346.883 622.422H338.525L336.734 594.683ZM253.451 592.807C255.043 592.713 256.536 592.666 257.929 592.666H269.869C275.242 592.666 279.421 591.702 282.406 589.776C285.731 587.559 288.59 585.083 290.914 582.41C293.6 579.426 295.441 577.452 296.436 576.488L311.361 559.739L309.868 546.733L291.958 536.627L265.392 526.811C263.601 526.426 262.302 526.426 261.511 526.811C259.521 528.538 256.287 531.763 251.81 536.486C248.535 539.782 245.593 543.204 243.004 546.733C241.412 548.666 240.417 551.844 240.019 556.267C239.621 560.689 239.422 566.082 239.422 572.444C239.422 574.752 239.322 576.582 239.123 577.934C238.929 579.285 238.825 580.242 238.825 580.824L239.422 584.286L240.317 589.194C241.151 590.082 242.273 590.851 243.611 591.449C244.948 592.047 246.47 592.462 248.078 592.666C249.853 592.853 251.658 592.9 253.451 592.807Z" fill="white"/>
<path d="M590.462 602.19L592.253 590.067L594.641 575.334V506.007C594.641 505.069 594.641 503.314 594.79 500.809C594.939 498.304 594.79 496.117 594.641 494.165L589.865 469.618C595.501 466.668 600.743 463.432 605.536 459.943C609.824 456.765 611.964 454.213 611.954 452.286V446.796L606.581 419.359C605.193 419.171 604.596 419.068 604.79 419.068C605.398 419.134 605.997 419.232 606.581 419.359C611.14 420.214 615.855 420.7 620.61 420.804C621.744 420.666 622.815 420.371 623.745 419.94C625.221 419.361 626.93 419.059 628.67 419.068C629.685 419.052 630.695 419.151 631.655 419.359C636.232 420.128 643.297 420.513 652.849 420.513H669.565L674.938 423.985C674.341 442.083 673.943 451.613 673.744 452.577C673.555 452.965 674.649 455.949 677.027 461.529C677.435 462.88 678.679 466.249 680.759 471.635C682.498 475.81 683.745 480.06 684.49 484.35C685.087 490.318 688.47 500.233 694.639 514.096C697.813 521.415 699.405 526.229 699.415 528.538C699.415 529.695 700.211 533.355 701.803 539.517C703.395 545.679 704.49 549.82 705.087 551.941C707.077 559.648 708.072 563.595 708.072 563.783C708.266 564.355 709.415 566.429 711.504 569.985C713.755 573.904 715.599 577.91 717.027 581.978C718.193 584.371 718.894 586.845 719.116 589.344C719.315 591.746 719.614 592.947 720.012 592.947C720.415 592.947 721.997 592.084 724.788 590.348C726.722 589.087 728.818 587.929 731.056 586.885C732.281 586.391 733.262 585.693 733.892 584.868C734.308 583.341 734.458 581.79 734.34 580.242V514.387L726.579 492.711L732.549 497.909L724.191 489.53L707.773 472.489L699.415 435.808C699.415 432.918 699.813 427.716 700.609 420.203L732.549 420.785C732.952 420.785 733.146 420.888 733.146 421.076C732.615 421.811 731.911 422.491 731.056 423.093C729.903 423.899 729.174 424.908 728.967 425.983C728.967 427.138 730.758 427.719 734.34 427.719C741.902 427.719 754.24 425.311 771.354 420.494L776.429 470.228V481.779C769.862 496.03 766.578 505.848 766.578 511.234V586.914L758.817 616.66L747.474 622.44H717.027L692.549 619.55C691.549 617.054 690.714 615.074 690.012 613.629C689.311 612.184 688.773 610.983 688.37 610.026C688.176 609.641 688.773 610.213 690.161 611.752C691.55 613.291 692.445 614.258 692.848 614.642L688.072 608.29C684.679 603.473 681.495 596.203 678.52 586.482C675.545 576.76 673.057 566.507 671.057 555.722C655.346 537.236 647.486 527.512 647.476 526.548C647.466 525.585 640.501 516.533 626.58 499.392L625.983 496.22L632.849 531.747C633.849 533.483 634.088 533.53 633.595 531.888C633.103 530.246 635.088 533.868 639.715 542.726L650.461 564.965C654.64 590.189 657.326 604.051 658.52 606.554C659.332 608.566 660.535 610.507 662.102 612.334C664.087 615.412 665.087 617.345 665.087 618.105V622.44H584.79V616.66C588.571 607.795 590.462 602.972 590.462 602.19Z" fill="white"/>
<path d="M871.65 420.222V433.509C870.456 443.143 869.163 451.426 867.77 458.357C867.511 460.494 867.012 462.617 866.277 464.71L862.098 478.279L859.412 487.522V485.936C859.412 485.073 859.113 484.641 858.516 484.641C857.919 484.641 857.128 485.41 856.128 486.949C855.065 488.363 854.118 489.81 853.292 491.285C852.833 492.122 852.581 492.998 852.546 493.884C852.392 496.516 851.791 499.13 850.755 501.682L847.77 510.925C846.984 514.002 845.491 518.238 843.292 523.63L841.203 528.829L842.695 525.366L840.307 531.719C837.521 539.226 835.631 544.424 834.636 547.315C833.641 551.168 832.994 554.152 832.696 556.267C832.397 558.381 832.248 561.077 832.248 564.355C832.248 565.904 832.248 566.955 832.099 567.536C831.949 568.118 831.755 569.751 831.352 572.444C830.954 576.485 830.805 579.085 830.905 580.242C831.009 581.396 831.054 582.363 831.054 583.132C831.054 584.868 831.457 588.903 832.248 595.265H839.412C841.131 595.135 842.773 594.739 844.188 594.111C845.183 593.341 848.765 590.501 854.934 585.591C859.292 581.95 864.082 578.521 869.262 575.334C877.819 568.597 882.993 564.265 884.784 562.338C885.733 561.442 886.485 560.47 887.023 559.448C887.516 558.509 888.859 556.464 891.053 553.376C893.844 549.529 895.127 547.418 894.933 547.024C894.764 546.346 894.867 545.652 895.232 545.006C897.19 541.71 898.786 538.333 900.008 534.9C905.779 515.645 908.764 504.572 908.963 501.682C909.66 497.695 910.757 493.74 912.246 489.839L920.306 471.072C921.689 463.184 922.485 457.791 922.694 454.895C923.178 451.947 924.179 449.043 925.679 446.234L934.634 420.231H970.454V430.347C969.575 434.461 969.176 438.611 969.26 442.762V446.234L968.962 455.476C968.962 456.634 967.967 461.351 965.977 469.627L962.693 491.575L959.111 506.589V516.696L955.231 538.072L954.634 547.315L954.335 571.581V576.488L957.022 581.687L962.693 585.15L971.35 602.19C973.738 609.897 974.932 615.484 974.932 618.95C974.932 620.873 974.529 621.83 973.738 621.83C971.088 622.226 968.328 622.226 965.678 621.83H924.485L927.769 603.063L928.366 581.687L929.56 573.889C931.162 560.99 931.162 555.985 929.56 558.875C928.109 562.054 926.963 565.285 926.127 568.55C924.833 573.085 923.988 576.407 923.59 578.515C922.804 581.218 921.709 585.456 920.306 591.23C918.918 597.001 918.217 600.379 918.217 601.336C918.217 602.106 917.724 602.491 916.724 602.491L914.037 602.2C913.002 602.273 912.045 602.584 911.351 603.072C909.958 604.23 902.097 607.117 887.769 611.733C873.441 616.35 865.183 618.662 862.994 618.668C862.397 618.668 859.312 619.053 853.74 619.822C844.387 621.555 837.123 622.421 831.949 622.421H826.576L820.308 620.113C818.517 619.344 815.233 618.086 810.457 616.36C805.681 614.633 802.89 613.376 802.099 612.606C801.061 611.977 800.335 611.172 800.009 610.288C799.104 608.511 798.007 606.774 796.726 605.09C795.694 603.801 794.893 602.445 794.338 601.045C794.58 600.013 794.98 598.998 795.532 598.014C796.318 596.382 796.716 592.29 796.726 585.741V566.973C796.726 564.283 796.676 561.684 796.577 559.175C796.472 556.679 796.577 554.484 796.726 552.532C796.982 550.61 797.082 548.68 797.024 546.752L796.726 526.248C796.726 518.929 796.825 513.874 797.024 511.084C797.223 508.294 797.82 504.684 798.815 500.255C799.412 496.977 799.711 494.763 799.711 493.612C799.711 491.688 799.412 490.722 798.815 490.722L808.069 451.441C808.855 448.939 810.945 444.316 814.338 437.572L820.905 420.241L871.65 420.222Z" fill="white"/>
<path d="M1051.05 560.602C1051.21 557.904 1051.11 555.203 1050.75 552.513C1050.35 547.896 1050.15 544.912 1050.15 543.561C1050.15 542.21 1051.35 538.55 1053.74 532.582L1054.63 516.696L1055.23 504.572C1055.01 502.55 1055.01 500.522 1055.23 498.501V496.765C1055.23 494.888 1054.93 493.884 1054.33 493.884H1053.44C1052.65 493.884 1052.35 492.533 1052.54 489.839C1059.51 474.431 1062.99 464.128 1062.99 458.93C1062.99 457.053 1062.39 456.039 1061.2 456.039H1048.06L1041.5 456.33L1017.32 457.485L1007.47 456.621L1006.27 451.132L1004.78 436.69C1004.61 434.94 1004.21 433.201 1003.59 431.492L1010.75 420.231H1139.41L1147.76 423.703C1145.18 424.273 1140 430.338 1132.24 441.898C1129.26 446.14 1127.47 448.789 1126.87 449.846C1126.27 450.903 1126.62 450.613 1127.91 448.974C1129.21 447.341 1128.85 447.772 1126.87 450.278C1125.47 450.89 1123.79 451.194 1122.09 451.141C1120.04 451.076 1118.02 450.784 1116.12 450.278H1092.24L1101.2 457.203C1105.18 474.538 1107.07 484.262 1106.87 486.377C1106.77 487.667 1106.31 488.937 1105.53 490.13C1104.82 491.069 1103.69 492.439 1102.09 494.165L1101.2 495.329C1101.3 494.879 1101.5 494.441 1101.79 494.025C1102.2 493.349 1102.5 493.011 1102.69 493.011C1103.29 493.011 1103.59 493.687 1103.59 495.038C1103.44 497.84 1103.04 500.635 1102.39 503.408C1101.4 509.189 1100.9 512.56 1100.9 513.524C1100.89 513.868 1100.99 514.21 1101.2 514.528C1101.48 515.433 1101.58 516.357 1101.5 517.277C1101.5 519.586 1101.4 521.8 1101.2 523.921C1101.2 525.798 1101.09 526.736 1100.9 526.52C1100.71 526.304 1100.6 528.829 1100.6 534.027L1100.3 549.041C1100.18 550.981 1100.79 552.911 1102.09 554.671C1103 555.913 1104.45 556.965 1106.27 557.702L1106.87 571.853L1094.93 582.832L1084.48 592.075L1091.05 590.92L1104.78 588.321H1127.47C1131.45 588.321 1134.38 588.8 1136.27 589.766C1137.15 590.175 1137.88 590.694 1138.42 591.29C1138.96 591.886 1139.29 592.547 1139.41 593.229L1148.06 599.3L1151.94 610.561V622.403H992.841C993.438 617.401 993.543 614.314 993.14 613.16C992.951 611.821 992.951 608.934 993.14 604.499C1003.29 594.489 1010.45 588.421 1014.63 586.294C1016 585.451 1017.8 584.942 1019.71 584.859C1020.36 584.848 1020.99 584.989 1021.49 585.253C1021.98 585.518 1022.31 585.889 1022.39 586.294L1045.38 581.968L1054.33 568.972C1051.55 564.168 1050.45 561.378 1051.05 560.602Z" fill="white"/>
<path d="M1204.78 616.35L1193.44 606.526L1174.33 584.868C1173.53 582.747 1173.13 578.027 1173.14 570.708C1173.14 562.619 1173.54 553.089 1174.33 542.116L1194.03 515.541V503.699C1193.44 505.435 1193.08 505.632 1192.99 504.281C1193.06 500.997 1193.41 497.717 1194.03 494.456L1197.62 471.063C1196.62 466.246 1193.83 463.837 1189.26 463.837C1184.68 463.837 1179.31 465.955 1173.14 470.19L1169.85 449.105V430.047L1179.71 420.222H1252.84L1248.36 428.892L1245.97 438.708C1244.38 441.022 1243.39 445.261 1242.99 451.423C1242.76 454.758 1242.26 458.084 1241.5 461.388C1240.9 463.603 1240.39 465.677 1240 467.6L1238.81 474.816H1275.82L1297.61 470.772V483.477C1298 486.762 1298.4 488.638 1298.81 489.108C1299.11 489.418 1299.31 489.762 1299.4 490.121L1298.81 493.874L1297.02 503.971C1296.21 508.982 1295.82 511.769 1295.82 512.351C1295.89 513.076 1295.79 513.803 1295.52 514.509C1295.32 514.8 1294.72 514.997 1293.73 515.091C1292.91 515.161 1292.1 515.306 1291.34 515.523C1288.72 515.962 1286 516.158 1283.29 516.104C1278.7 516.104 1273.33 515.917 1267.17 515.523H1259.11L1251.05 513.214L1245.97 508.588L1239.41 501.663L1228.96 497.909L1236.42 518.122L1231.94 524.193L1231.35 563.473L1248.96 573.007C1253.13 572.789 1257.32 572.789 1261.49 573.007C1263.08 573.392 1265.97 573.392 1270.15 573.007L1278.21 561.747L1280 542.107L1300.3 532C1308.06 529.31 1312.74 527.962 1314.33 527.956C1315.92 527.95 1321.59 527.083 1331.34 525.357L1341.79 547.878C1341.79 555.197 1339.4 568.578 1334.63 588.021L1316.12 607.089C1323.88 606.707 1327.76 606.995 1327.76 607.952C1327.76 609.685 1316.12 612.863 1292.84 617.486C1274.53 621.145 1260.1 622.975 1249.55 622.975C1247.03 623.03 1244.52 622.834 1242.09 622.393L1204.78 616.35Z" fill="white"/>
</svg>
